<?xml version="1.0" encoding="UTF-8" standalone="no"?>
<svg width="81px" height="75px" viewBox="0 0 81 75" version="1.1" xmlns="http://www.w3.org/2000/svg" xmlns:xlink="http://www.w3.org/1999/xlink">
    <!-- Generator: Sketch 3.6.1 (26313) - http://www.bohemiancoding.com/sketch -->
    <title>Group</title>
    <desc>Created with Sketch.</desc>
    <defs></defs>
    <g id="Page-1" stroke="none" stroke-width="1" fill="none" fill-rule="evenodd">
        <g id="Group" fill="#4470D1">
            <path d="M0,40.848001 L0,39.0135471 L4.20132587,39.0135471 L4.20132587,1.83528028 L0,1.83528028 L0,0 L20.1416505,0 L20.1416505,1.83528028 L14.5810721,1.83528028 L14.5810721,39.0135471 L21.500903,39.0135471 C28.4825181,39.0135471 31.0774546,33.264765 32.9927649,27.4564872 L34.7227227,27.4564872 L34.1057155,40.848001 L0,40.848001" id="Fill-1"></path>
            <path d="M22.938452,12 L80.0053485,12 L80.9438005,32.1591616 L78.4106481,32.1591616 C75.3130887,20.9177599 72.2155293,13.8592439 59.3569005,14.7880395 L59.3569005,71.2677367 L67.0523736,71.2677367 L67.0523736,74.0541235 L35.8905919,74.0541235 L35.8905919,71.2677367 L43.5877349,71.2677367 L43.5877349,14.7880395 C30.7291061,13.8592439 27.6315467,20.9177599 24.5339873,32.1591616 L22,32.1591616 L22.938452,12" id="Fill-3"></path>
        </g>
    </g>
</svg>