<?xml version="1.0" encoding="UTF-8" standalone="no"?>
<svg width="200px" height="34px" viewBox="0 0 200 34" version="1.1" xmlns="http://www.w3.org/2000/svg" xmlns:xlink="http://www.w3.org/1999/xlink">
    <!-- Generator: Sketch 3.6.1 (26313) - http://www.bohemiancoding.com/sketch -->
    <title>TOINYSTBARTH-LOGO-RVB</title>
    <desc>Created with Sketch.</desc>
    <defs></defs>
    <g id="Page-1" stroke="none" stroke-width="1" fill="none" fill-rule="evenodd">
        <g id="TOINYSTBARTH-LOGO-RVB" fill="#4470D1">
            <path d="M0.0848623853,16.1018349 L0.0848623853,15.4022936 L1.78715596,15.4022936 L1.78715596,1.22798165 L0.0848623853,1.22798165 L0.0848623853,0.528899083 L7.61513761,0.528899083 L7.61513761,1.22798165 L5.70366972,1.22798165 L5.70366972,7.77889908 L10.8321101,7.77889908 L10.8321101,1.22798165 L8.9206422,1.22798165 L8.9206422,0.528899083 L16.6834862,0.528899083 L16.6834862,1.22798165 L14.7486239,1.22798165 L14.7486239,15.4022936 L16.6834862,15.4022936 L16.6834862,16.1018349 L8.9206422,16.1018349 L8.9206422,15.4022936 L10.8321101,15.4022936 L10.8321101,8.47844037 L5.70366972,8.47844037 L5.70366972,15.4022936 L7.63853211,15.4022936 L7.63853211,16.1018349 L0.0848623853,16.1018349" id="Fill-1"></path>
            <path d="M23.166055,9.9706422 C23.166055,14.8197248 23.3293578,15.7522936 26.5233945,15.7522936 C29.7169725,15.7522936 29.9036697,14.8197248 29.9036697,9.9706422 L29.9036697,6.05412844 C29.9036697,1.81100917 29.0876147,0.878440367 26.5233945,0.878440367 C23.9587156,0.878440367 23.166055,1.81100917 23.166055,6.05412844 L23.166055,9.9706422 L23.166055,9.9706422 Z M34.5192661,8.15229358 C34.5192661,12.7449541 31.0926606,16.4513761 26.5233945,16.4513761 C21.9770642,16.4513761 18.55,12.7449541 18.55,8.15229358 C18.55,2.86009174 23.4926606,0.178899083 26.5233945,0.178899083 C29.5770642,0.178899083 34.5192661,2.86009174 34.5192661,8.15229358 L34.5192661,8.15229358 Z" id="Fill-2"></path>
            <path d="M36.2926606,0.528899083 L50.4669725,0.528899083 L50.7,5.58807339 L50.0706422,5.58807339 C49.3013761,2.76697248 48.5321101,0.994954128 45.3380734,1.22798165 L45.3380734,15.4022936 L47.2495413,15.4022936 L47.2495413,16.1018349 L39.509633,16.1018349 L39.509633,15.4022936 L41.4215596,15.4022936 L41.4215596,1.22798165 C38.2275229,0.994954128 37.4582569,2.76697248 36.6889908,5.58807339 L36.059633,5.58807339 L36.2926606,0.528899083" id="Fill-3"></path>
            <path d="M52.0766055,16.1018349 L52.0766055,15.4022936 L53.9417431,15.4022936 L53.9417431,1.22798165 L52.2862385,1.22798165 L52.2862385,0.528899083 L65.0385321,0.528899083 L65.1784404,4.72522936 L64.3857798,4.72522936 C63.406422,2.09082569 62.3807339,1.22798165 60.0495413,1.22798165 L57.8582569,1.22798165 L57.8582569,7.73256881 C60.1426606,7.73256881 60.6325688,7.05642202 61.0986239,4.91146789 L61.8678899,4.91146789 L61.8678899,11.5325688 L61.0986239,11.5325688 C60.7724771,9.29449541 60.1426606,8.54816514 57.8582569,8.54816514 L57.8582569,15.4022936 L60.1426606,15.4022936 C63.756422,15.4022936 64.4091743,13.7004587 65.0385321,10.9963303 L65.7610092,10.9963303 L65.6211009,16.1018349 L52.0766055,16.1018349" id="Fill-4"></path>
            <path d="M67.2775229,16.1018349 L67.2775229,15.4022936 L68.862844,15.4022936 L68.862844,1.22798165 L67.2775229,1.22798165 L67.2775229,0.528899083 L74.8775229,0.528899083 L74.8775229,1.22798165 L72.7793578,1.22798165 L72.7793578,15.4022936 L75.390367,15.4022936 C78.0247706,15.4022936 79.0036697,13.2110092 79.7266055,10.9963303 L80.3793578,10.9963303 L80.1463303,16.1018349 L67.2775229,16.1018349" id="Fill-5"></path>
            <path d="M88.6334862,16.1018349 L88.6334862,15.4022936 L90.2188073,15.4022936 L90.2188073,1.22798165 L88.6334862,1.22798165 L88.6334862,0.528899083 L96.2334862,0.528899083 L96.2334862,1.22798165 L94.1353211,1.22798165 L94.1353211,15.4022936 L96.7458716,15.4022936 C99.3807339,15.4022936 100.359633,13.2110092 101.082569,10.9963303 L101.735321,10.9963303 L101.502294,16.1018349 L88.6334862,16.1018349" id="Fill-6"></path>
            <path d="M103.227982,16.1018349 L103.227982,15.4022936 L105.093119,15.4022936 L105.093119,1.22798165 L103.438073,1.22798165 L103.438073,0.528899083 L116.190367,0.528899083 L116.330275,4.72522936 L115.537156,4.72522936 C114.558257,2.09082569 113.532569,1.22798165 111.201376,1.22798165 L109.009633,1.22798165 L109.009633,7.73256881 C111.294495,7.73256881 111.783945,7.05642202 112.250459,4.91146789 L113.019725,4.91146789 L113.019725,11.5325688 L112.250459,11.5325688 C111.924312,9.29449541 111.294495,8.54816514 109.009633,8.54816514 L109.009633,15.4022936 L111.294495,15.4022936 C114.908257,15.4022936 115.561009,13.7004587 116.190367,10.9963303 L116.912844,10.9963303 L116.772936,16.1018349 L103.227982,16.1018349" id="Fill-7"></path>
            <path d="M125.655963,0.528899083 L139.830734,0.528899083 L140.063761,5.58807339 L139.434404,5.58807339 C138.665138,2.76697248 137.895872,0.994954128 134.701835,1.22798165 L134.701835,15.4022936 L136.613303,15.4022936 L136.613303,16.1018349 L128.873394,16.1018349 L128.873394,15.4022936 L130.785321,15.4022936 L130.785321,1.22798165 C127.591284,0.994954128 126.822018,2.76697248 126.052752,5.58807339 L125.423394,5.58807339 L125.655963,0.528899083" id="Fill-8"></path>
            <path d="M146.219725,9.9706422 C146.219725,14.8197248 146.383028,15.7522936 149.576606,15.7522936 C152.770183,15.7522936 152.956881,14.8197248 152.956881,9.9706422 L152.956881,6.05412844 C152.956881,1.81100917 152.140826,0.878440367 149.576606,0.878440367 C147.011927,0.878440367 146.219725,1.81100917 146.219725,6.05412844 L146.219725,9.9706422 L146.219725,9.9706422 Z M157.572936,8.15229358 C157.572936,12.7449541 154.145872,16.4513761 149.576606,16.4513761 C145.030275,16.4513761 141.603211,12.7449541 141.603211,8.15229358 C141.603211,2.86009174 146.545872,0.178899083 149.576606,0.178899083 C152.630734,0.178899083 157.572936,2.86009174 157.572936,8.15229358 L157.572936,8.15229358 Z" id="Fill-9"></path>
            <path d="M159.392661,16.1018349 L159.392661,15.4022936 L161.117431,15.4022936 L161.117431,1.22798165 L159.392661,1.22798165 L159.392661,0.528899083 L166.992202,0.528899083 L166.992202,1.22798165 L165.033945,1.22798165 L165.033945,15.4022936 L166.992202,15.4022936 L166.992202,16.1018349 L159.392661,16.1018349" id="Fill-10"></path>
            <path d="M181.820183,16.4513761 L181.283486,16.4513761 L171.305963,2.58027523 L171.305963,14.5399083 C171.305963,15.1224771 171.63211,15.3559633 172.215138,15.4022936 L173.544037,15.4022936 L173.544037,16.1018349 L168.414679,16.1018349 L168.414679,15.4022936 L169.533945,15.4022936 C170.326606,15.3559633 170.373394,14.8665138 170.373394,14.190367 L170.373394,2.6733945 C170.373394,1.53119266 170.583028,1.22798165 169.183945,1.22798165 L168.414679,1.22798165 L168.414679,0.528899083 L174.569725,0.528899083 L181.120183,9.76100917 L181.120183,1.90412844 C181.120183,1.43807339 180.164679,1.22798165 179.581651,1.22798165 L178.928899,1.22798165 L178.928899,0.528899083 L183.848165,0.528899083 L183.848165,1.22798165 L182.869266,1.22798165 C182.193119,1.22798165 181.820183,1.43807339 181.820183,1.90412844 L181.820183,16.4513761" id="Fill-11"></path>
            <path d="M184.688073,0.528899083 L192.125229,0.528899083 L192.125229,1.22798165 L190.376606,1.22798165 L194.106422,7.54633028 L197.066972,1.83440367 C197.25367,1.48486239 196.904128,1.22798165 196.414679,1.22798165 L195.038991,1.22798165 L195.038991,0.528899083 L199.958257,0.528899083 L199.958257,1.22798165 L199.095872,1.22798165 C198.443119,1.22798165 198.186239,1.34495413 197.580275,2.51055046 L194.503211,8.50183486 L194.503211,15.4022936 L196.554587,15.4022936 L196.554587,16.1018349 L188.627982,16.1018349 L188.627982,15.4022936 L190.586697,15.4022936 L190.586697,9.08486239 L186.11055,1.22798165 L184.688073,1.22798165 L184.688073,0.528899083" id="Fill-12"></path>
            <path d="M68.8114679,23.1830275 L69.2655963,23.1830275 L69.2655963,25.7770642 L68.796789,25.7770642 C68.5770642,24.5752294 67.5366972,23.4027523 66.2614679,23.4027523 C65.4559633,23.4027523 64.3275229,23.8720183 64.3275229,24.8389908 C64.3275229,25.7036697 64.9426606,25.9380734 65.6610092,26.0995413 C66.4082569,26.2605505 67.6394495,26.5536697 68.3133028,26.846789 C69.1926606,27.2275229 69.9105505,28.0045872 69.9105505,29.7041284 C69.9105505,31.4188073 68.8701835,33.1917431 66.4816514,33.1917431 C65.7197248,33.1917431 65.0747706,32.9720183 64.4591743,32.503211 L63.7119266,33.0600917 L63.1844037,33.0600917 L63.1844037,30.2169725 L63.7119266,30.2169725 C64.1077982,31.5651376 65.0747706,32.7522936 66.5550459,32.7522936 C68.1816514,32.7522936 68.8848624,31.7119266 68.8848624,30.7885321 C68.8848624,29.5284404 67.4633028,29.4256881 66.056422,29.059633 C64.6353211,28.6931193 63.2137615,28.1068807 63.2137615,25.8944954 C63.2137615,24.2238532 64.6206422,22.9633028 66.2912844,22.9633028 C66.9944954,22.9633028 67.6683486,23.2422018 68.2692661,23.6082569 L68.8114679,23.1830275" id="Fill-13"></path>
            <path d="M71.0513761,23.1830275 L79.9610092,23.1830275 L80.1077982,26.3633028 L79.7123853,26.3633028 C79.2284404,24.5899083 78.7449541,23.4761468 76.7376147,23.6229358 L76.7376147,32.5325688 L77.9389908,32.5325688 L77.9389908,32.9720183 L73.0738532,32.9720183 L73.0738532,32.5325688 L74.2756881,32.5325688 L74.2756881,23.6229358 C72.2678899,23.4761468 71.7844037,24.5899083 71.3009174,26.3633028 L70.9050459,26.3633028 L71.0513761,23.1830275" id="Fill-14"></path>
            <path d="M90.7573394,32.5325688 C92.0619266,32.5325688 91.856422,31.3747706 91.856422,30.3344037 C91.856422,28.5610092 91.7394495,28.0922018 89.6587156,28.0922018 L89.0284404,28.0922018 L89.0284404,32.5325688 L90.7573394,32.5325688 L90.7573394,32.5325688 Z M89.0284404,27.6527523 L89.6587156,27.6527523 C91.2119266,27.6527523 91.5486239,27.4623853 91.5486239,25.4986239 C91.5486239,23.7545872 91.490367,23.6229358 89.9954128,23.6229358 L89.0284404,23.6229358 L89.0284404,27.6527523 L89.0284404,27.6527523 Z M85.5701835,32.9720183 L85.5701835,32.5325688 L86.5665138,32.5325688 L86.5665138,23.6229358 L85.5261468,23.6229358 L85.5261468,23.1830275 L90.9775229,23.1830275 C92.2522936,23.1830275 93.9811927,23.7986239 94.083945,25.3376147 C94.1573394,26.4509174 93.4389908,27.4330275 91.2119266,27.8577982 L91.2119266,27.887156 C92.6623853,27.9311927 94.5821101,28.6197248 94.5821101,30.3931193 C94.5821101,31.4481651 93.8642202,32.166055 92.9995413,32.5912844 C92.2669725,32.9573394 91.2995413,32.9720183 90.5082569,32.9720183 L85.5701835,32.9720183 L85.5701835,32.9720183 Z" id="Fill-15"></path>
            <path d="M98.0380734,29.7922018 L100.675688,29.7922018 L99.3715596,26.2018349 L98.0380734,29.7922018 L98.0380734,29.7922018 Z M95.4587156,32.9720183 L95.4587156,32.5325688 C95.8105505,32.5325688 96.4550459,32.546789 96.6165138,32.1073394 L100.075229,22.9633028 L100.64633,22.9633028 L104.280734,32.5325688 L105.159633,32.5325688 L105.159633,32.9720183 L100.514679,32.9720183 L100.514679,32.5325688 L101.643119,32.5325688 L100.851835,30.2316514 L97.8472477,30.2316514 L97.4665138,31.287156 C97.3050459,31.7266055 97.1733945,32.1513761 97.1733945,32.2834862 C97.1733945,32.6495413 98.287156,32.5325688 98.4922018,32.5325688 L98.4922018,32.9720183 L95.4587156,32.9720183 L95.4587156,32.9720183 Z" id="Fill-16"></path>
            <path d="M109.319266,27.506422 L109.934862,27.506422 C111.414679,27.506422 111.839908,27.2568807 111.839908,26.2311927 L111.839908,24.809633 C111.839908,24.106422 112.073853,23.6229358 110.374312,23.6229358 L109.319266,23.6229358 L109.319266,27.506422 L109.319266,27.506422 Z M105.71422,32.9720183 L105.71422,32.5325688 L106.856881,32.5325688 L106.856881,23.6229358 L105.684862,23.6229358 L105.684862,23.1830275 L111.502752,23.1830275 C112.96789,23.1830275 114.506422,23.8426606 114.506422,25.5573394 C114.506422,27.1692661 112.469725,27.6380734 111.238532,27.7701835 L111.238532,27.7990826 C113.275688,28.1802752 114.125688,28.9862385 114.125688,30.3931193 C114.125688,31.6091743 114.184404,32.1366972 114.38945,32.356422 C114.492202,32.4591743 114.785321,32.5766055 115.51789,32.4151376 L115.605505,32.7229358 C115.136697,32.9720183 114.418807,33.1770642 113.890826,33.1770642 C112.103211,33.1770642 111.502752,32.3711009 111.458716,30.1146789 C111.429358,28.3706422 111.12156,27.9899083 109.949541,27.9899083 L109.319266,27.9899083 L109.319266,32.5325688 L110.535321,32.5325688 L110.535321,32.9720183 L105.71422,32.9720183 L105.71422,32.9720183 Z" id="Fill-17"></path>
            <path d="M116.218349,23.1830275 L125.127982,23.1830275 L125.274312,26.3633028 L124.878899,26.3633028 C124.395413,24.5899083 123.911927,23.4761468 121.904128,23.6229358 L121.904128,32.5325688 L123.105505,32.5325688 L123.105505,32.9720183 L118.240367,32.9720183 L118.240367,32.5325688 L119.442661,32.5325688 L119.442661,23.6229358 C117.434404,23.4761468 116.951376,24.5899083 116.46789,26.3633028 L116.072018,26.3633028 L116.218349,23.1830275" id="Fill-18"></path>
            <path d="M126.034404,32.9720183 L126.034404,32.5325688 L127.104128,32.5325688 L127.104128,23.6229358 L126.034404,23.6229358 L126.034404,23.1830275 L130.76789,23.1830275 L130.76789,23.6229358 L129.565596,23.6229358 L129.565596,27.7408257 L132.789908,27.7408257 L132.789908,23.6229358 L131.588073,23.6229358 L131.588073,23.1830275 L136.46789,23.1830275 L136.46789,23.6229358 L135.251835,23.6229358 L135.251835,32.5325688 L136.46789,32.5325688 L136.46789,32.9720183 L131.588073,32.9720183 L131.588073,32.5325688 L132.789908,32.5325688 L132.789908,28.1802752 L129.565596,28.1802752 L129.565596,32.5325688 L130.782569,32.5325688 L130.782569,32.9720183 L126.034404,32.9720183" id="Fill-19"></path>
        </g>
    </g>
</svg>