<?xml version="1.0" standalone="no"?>
<!DOCTYPE svg PUBLIC "-//W3C//DTD SVG 20010904//EN"
 "http://www.w3.org/TR/2001/REC-SVG-20010904/DTD/svg10.dtd">
<svg version="1.0" xmlns="http://www.w3.org/2000/svg"
 width="260.000000pt" height="260.000000pt" viewBox="0 0 260.000000 260.000000"
 preserveAspectRatio="xMidYMid meet">
<metadata>
Created by potrace 1.11, written by Peter Selinger 2001-2013
</metadata>
<g transform="translate(0.000000,260.000000) scale(0.100000,-0.100000)"
fill="#000000" stroke="none">
<path d="M25 2461 c-3 -2 -5 -15 -5 -27 0 -21 5 -23 67 -26 l67 -3 1 -575 c0
-316 -1 -581 -3 -587 -3 -9 -26 -13 -68 -13 l-64 0 0 -30 0 -30 542 2 542 3 2
45 c1 25 4 120 8 211 l7 166 -27 -1 c-23 -1 -30 -10 -58 -82 -43 -107 -89
-177 -144 -220 -69 -52 -127 -65 -278 -62 l-129 3 -1 588 -1 587 89 0 88 0 0
28 0 28 -315 0 c-174 0 -318 -2 -320 -5z"/>
<path d="M739 2058 c0 -18 -2 -58 -4 -88 -2 -30 -6 -116 -9 -190 -4 -74 -9
-179 -11 -232 l-5 -98 40 0 c24 0 42 5 44 13 65 211 100 294 163 380 72 98
204 157 354 158 39 1 74 -2 77 -6 4 -4 7 -407 7 -896 l0 -889 -122 0 -123 0 0
-44 0 -45 495 0 495 1 0 43 0 44 -122 3 -122 3 -1 888 c0 489 4 891 8 894 14
8 129 4 186 -7 186 -35 295 -161 381 -437 l32 -103 40 0 40 0 -6 113 c-3 61
-9 180 -12 262 -6 132 -8 175 -13 248 -1 16 -51 17 -906 17 l-905 0 -1 -32z"/>
</g>
</svg>
